<svg xmlns="http://www.w3.org/2000/svg" viewBox="0 0 100 100">
  <!-- Circle Background -->
  <circle cx="50" cy="50" r="45" fill="#ecfdf5" />
  
  <!-- Pot -->
  <path d="M35 70 L40 90 L60 90 L65 70 Z" fill="#b45309" />
  <rect x="33" y="65" width="34" height="8" rx="2" fill="#d97706" />

  <!-- Cactus Body -->
  <path d="M50 65 L50 35 A10 10 0 0 1 70 35 A5 5 0 0 0 75 40" fill="none" stroke="#10b981" stroke-width="8" stroke-linecap="round" />
  <!-- Main Stem -->
  <rect x="42" y="30" width="16" height="40" rx="8" fill="#10b981" />
  <!-- Left Arm -->
  <path d="M42 50 L30 50 A5 5 0 0 1 30 40" fill="none" stroke="#10b981" stroke-width="8" stroke-linecap="round" />
  <!-- Right Arm -->
  <path d="M58 45 L65 45 A5 5 0 0 0 65 35" fill="none" stroke="#10b981" stroke-width="8" stroke-linecap="round" />
  
  <!-- Prickles (details) -->
  <circle cx="45" cy="35" r="1" fill="#fff" />
  <circle cx="55" cy="40" r="1" fill="#fff" />
  <circle cx="48" cy="55" r="1" fill="#fff" />
</svg>
